<svg xmlns="http://www.w3.org/2000/svg" xmlns:xlink="http://www.w3.org/1999/xlink" width="500" zoomAndPan="magnify" viewBox="0 0 375 374.999991" height="500" preserveAspectRatio="xMidYMid meet" version="1.0"><defs><clipPath id="bfda46b47b"><path d="M 112.5 112.5 L 262.5 112.5 L 262.5 262.5 L 112.5 262.5 Z M 112.5 112.5 " clip-rule="nonzero"/></clipPath><clipPath id="930299f2a2"><path d="M 108.199219 108.199219 L 266.449219 108.199219 L 266.449219 266.449219 L 108.199219 266.449219 Z M 108.199219 108.199219 " clip-rule="nonzero"/></clipPath></defs><g clip-path="url(#bfda46b47b)"><path fill="#40dfaf" d="M 262.5 187.5 C 262.5 169.316406 255.992188 152.621094 245.1875 139.625 C 245.117188 139.511719 245.042969 139.402344 244.957031 139.300781 C 244.859375 139.183594 244.753906 139.082031 244.644531 138.984375 C 230.878906 122.792969 210.371094 112.5 187.5 112.5 C 164.628906 112.5 144.121094 122.792969 130.355469 138.984375 C 130.246094 139.082031 130.140625 139.183594 130.042969 139.300781 C 129.957031 139.402344 129.882812 139.511719 129.8125 139.625 C 119.007812 152.621094 112.5 169.316406 112.5 187.5 C 112.5 206.914062 119.917969 224.632812 132.066406 237.964844 C 132.089844 238.003906 132.113281 238.039062 132.140625 238.078125 C 132.289062 238.269531 132.457031 238.4375 132.636719 238.578125 C 146.339844 253.285156 165.863281 262.5 187.5 262.5 C 209.132812 262.5 228.65625 253.289062 242.355469 238.585938 C 242.539062 238.441406 242.710938 238.273438 242.859375 238.078125 C 242.886719 238.039062 242.910156 238.003906 242.933594 237.964844 C 255.082031 224.632812 262.5 206.914062 262.5 187.5 Z M 232.414062 227.855469 C 237.472656 216.691406 240.335938 203.8125 240.6875 190.316406 L 256.804688 190.316406 C 256.15625 206.410156 250.003906 221.113281 240.175781 232.578125 C 237.734375 230.875 235.140625 229.296875 232.414062 227.855469 Z M 134.824219 232.578125 C 124.996094 221.113281 118.84375 206.410156 118.195312 190.316406 L 134.3125 190.316406 C 134.664062 203.8125 137.527344 216.691406 142.585938 227.855469 C 139.859375 229.296875 137.265625 230.875 134.824219 232.578125 Z M 132.671875 145.058594 C 135.304688 147.058594 138.132812 148.894531 141.125 150.5625 C 136.976562 160.90625 134.628906 172.542969 134.3125 184.683594 L 118.195312 184.683594 C 118.792969 169.796875 124.101562 156.105469 132.671875 145.058594 Z M 256.804688 184.683594 L 240.6875 184.683594 C 240.371094 172.542969 238.023438 160.90625 233.875 150.5625 C 236.867188 148.894531 239.695312 147.058594 242.328125 145.058594 C 250.898438 156.105469 256.207031 169.796875 256.804688 184.683594 Z M 235.050781 184.683594 L 212.039062 184.683594 C 211.941406 175.882812 211.375 167.347656 210.375 159.394531 C 216.902344 157.917969 223.113281 155.816406 228.832031 153.140625 C 232.515625 162.511719 234.734375 173.246094 235.050781 184.683594 Z M 190.316406 255.871094 L 190.316406 222.960938 C 194.738281 223.085938 199.109375 223.503906 203.371094 224.195312 C 202.484375 229.066406 201.417969 233.609375 200.175781 237.730469 C 197.386719 246.992188 193.792969 253.5 190.316406 255.871094 Z M 174.824219 237.730469 C 173.582031 233.609375 172.515625 229.066406 171.628906 224.195312 C 175.890625 223.503906 180.261719 223.085938 184.683594 222.960938 L 184.683594 255.871094 C 181.207031 253.5 177.613281 246.992188 174.824219 237.730469 Z M 184.683594 119.128906 L 184.683594 156.242188 C 180.007812 156.113281 175.40625 155.664062 170.9375 154.90625 C 171.9375 148.472656 173.242188 142.527344 174.824219 137.269531 C 177.613281 128.007812 181.207031 121.5 184.683594 119.128906 Z M 200.175781 137.269531 C 201.757812 142.527344 203.0625 148.472656 204.0625 154.90625 C 199.59375 155.664062 194.992188 156.113281 190.316406 156.242188 L 190.316406 119.128906 C 193.792969 121.5 197.386719 128.007812 200.175781 137.269531 Z M 184.683594 161.878906 L 184.683594 184.683594 L 168.59375 184.683594 C 168.691406 176.253906 169.226562 168.089844 170.164062 160.484375 C 174.890625 161.277344 179.75 161.75 184.683594 161.878906 Z M 184.683594 190.316406 L 184.683594 217.328125 C 179.957031 217.453125 175.28125 217.898438 170.71875 218.640625 C 169.4375 209.894531 168.710938 200.292969 168.59375 190.316406 Z M 190.316406 217.328125 L 190.316406 190.316406 L 206.40625 190.316406 C 206.289062 200.292969 205.5625 209.894531 204.28125 218.640625 C 199.71875 217.898438 195.042969 217.453125 190.316406 217.328125 Z M 190.316406 184.683594 L 190.316406 161.878906 C 195.25 161.75 200.109375 161.277344 204.835938 160.484375 C 205.773438 168.089844 206.308594 176.253906 206.40625 184.683594 Z M 209.585938 153.804688 C 208.550781 147.195312 207.207031 141.074219 205.570312 135.648438 C 203.601562 129.113281 201.320312 123.914062 198.777344 120.105469 C 210.21875 124.175781 220.054688 134.285156 226.589844 147.980469 C 221.328125 150.453125 215.609375 152.414062 209.585938 153.804688 Z M 176.222656 120.105469 C 173.679688 123.914062 171.398438 129.113281 169.429688 135.648438 C 167.792969 141.074219 166.449219 147.195312 165.414062 153.804688 C 159.390625 152.414062 153.671875 150.453125 148.410156 147.980469 C 154.945312 134.285156 164.78125 124.175781 176.222656 120.105469 Z M 164.625 159.394531 C 163.625 167.347656 163.058594 175.882812 162.960938 184.683594 L 139.949219 184.683594 C 140.265625 173.246094 142.484375 162.511719 146.167969 153.140625 C 151.886719 155.816406 158.097656 157.917969 164.625 159.394531 Z M 139.949219 190.316406 L 162.960938 190.316406 C 163.078125 200.648438 163.839844 210.613281 165.183594 219.703125 C 159.027344 221.0625 153.128906 222.980469 147.660156 225.402344 C 143.089844 215.234375 140.304688 203.226562 139.949219 190.316406 Z M 166.097656 225.261719 C 167.019531 230.324219 168.136719 235.054688 169.429688 239.351562 C 171.398438 245.886719 173.679688 251.085938 176.222656 254.894531 C 165.757812 251.171875 156.636719 242.398438 150.152344 230.453125 C 155.132812 228.261719 160.492188 226.515625 166.097656 225.261719 Z M 198.777344 254.894531 C 201.320312 251.085938 203.601562 245.886719 205.570312 239.351562 C 206.863281 235.054688 207.980469 230.324219 208.902344 225.261719 C 214.507812 226.515625 219.867188 228.261719 224.847656 230.453125 C 218.363281 242.398438 209.242188 251.171875 198.777344 254.894531 Z M 209.816406 219.703125 C 211.160156 210.613281 211.921875 200.648438 212.039062 190.316406 L 235.050781 190.316406 C 234.695312 203.226562 231.910156 215.234375 227.339844 225.402344 C 221.871094 222.980469 215.972656 221.0625 209.816406 219.703125 Z M 238.695312 140.746094 C 236.472656 142.417969 234.097656 143.96875 231.59375 145.390625 C 229.792969 141.65625 227.746094 138.125 225.457031 134.847656 C 222.6875 130.886719 219.664062 127.417969 216.433594 124.464844 C 224.910156 128.371094 232.472656 133.9375 238.695312 140.746094 Z M 158.566406 124.464844 C 155.335938 127.417969 152.3125 130.886719 149.542969 134.847656 C 147.253906 138.125 145.207031 141.65625 143.40625 145.390625 C 140.902344 143.96875 138.527344 142.417969 136.304688 140.746094 C 142.527344 133.9375 150.089844 128.371094 158.566406 124.464844 Z M 138.699219 236.746094 C 140.71875 235.371094 142.855469 234.089844 145.089844 232.90625 C 146.453125 235.433594 147.9375 237.855469 149.542969 240.152344 C 152.3125 244.113281 155.335938 247.582031 158.566406 250.535156 C 151.148438 247.117188 144.433594 242.425781 138.699219 236.746094 Z M 225.457031 240.152344 C 227.0625 237.855469 228.546875 235.433594 229.910156 232.90625 C 232.144531 234.089844 234.28125 235.371094 236.300781 236.746094 C 230.566406 242.425781 223.851562 247.117188 216.433594 250.535156 C 219.664062 247.582031 222.6875 244.113281 225.457031 240.152344 Z M 225.457031 240.152344 " fill-opacity="1" fill-rule="nonzero"/></g><g clip-path="url(#930299f2a2)"><path fill="#000000" d="M 187.324219 266.449219 C 143.609375 266.449219 108.199219 230.792969 108.199219 187.324219 C 108.199219 143.855469 143.609375 108.199219 187.324219 108.199219 C 231.039062 108.199219 266.449219 143.609375 266.449219 187.324219 C 266.449219 231.039062 230.792969 266.449219 187.324219 266.449219 Z M 187.324219 113.082031 C 146.296875 113.082031 113.082031 146.296875 113.082031 187.324219 C 113.082031 228.351562 146.296875 261.566406 187.324219 261.566406 C 228.351562 261.566406 261.566406 228.351562 261.566406 187.324219 C 261.566406 146.296875 228.109375 113.082031 187.324219 113.082031 Z M 187.324219 113.082031 " fill-opacity="1" fill-rule="nonzero"/></g></svg>