<svg xmlns="http://www.w3.org/2000/svg" xmlns:xlink="http://www.w3.org/1999/xlink" width="500" zoomAndPan="magnify" viewBox="0 0 375 374.999991" height="500" preserveAspectRatio="xMidYMid meet" version="1.0"><defs><clipPath id="9cf10e6a11"><path d="M 112.5 112.5 L 261 112.5 L 261 261 L 112.5 261 Z M 112.5 112.5 " clip-rule="nonzero"/></clipPath><clipPath id="eae74216a5"><path d="M 112.5 112.5 L 262.5 112.5 L 262.5 262.5 L 112.5 262.5 Z M 112.5 112.5 " clip-rule="nonzero"/></clipPath></defs><g clip-path="url(#9cf10e6a11)"><path fill="#52d999" d="M 260.609375 186.554688 C 260.609375 187.765625 260.582031 188.980469 260.523438 190.1875 C 260.460938 191.398438 260.375 192.609375 260.253906 193.8125 C 260.136719 195.019531 259.988281 196.222656 259.808594 197.421875 C 259.632812 198.621094 259.425781 199.8125 259.1875 201.003906 C 258.953125 202.191406 258.6875 203.375 258.390625 204.550781 C 258.097656 205.726562 257.773438 206.894531 257.421875 208.050781 C 257.070312 209.210938 256.691406 210.363281 256.28125 211.503906 C 255.875 212.644531 255.4375 213.777344 254.972656 214.894531 C 254.511719 216.015625 254.019531 217.121094 253.5 218.21875 C 252.984375 219.3125 252.4375 220.394531 251.867188 221.464844 C 251.296875 222.535156 250.699219 223.589844 250.074219 224.628906 C 249.453125 225.667969 248.804688 226.691406 248.128906 227.699219 C 247.457031 228.707031 246.757812 229.695312 246.039062 230.671875 C 245.316406 231.644531 244.570312 232.597656 243.800781 233.535156 C 243.03125 234.472656 242.242188 235.390625 241.425781 236.289062 C 240.613281 237.1875 239.777344 238.0625 238.921875 238.921875 C 238.0625 239.777344 237.1875 240.613281 236.289062 241.425781 C 235.390625 242.242188 234.472656 243.03125 233.535156 243.800781 C 232.597656 244.570312 231.644531 245.316406 230.671875 246.039062 C 229.695312 246.757812 228.707031 247.457031 227.699219 248.128906 C 226.691406 248.804688 225.667969 249.453125 224.628906 250.074219 C 223.589844 250.699219 222.535156 251.296875 221.464844 251.867188 C 220.394531 252.4375 219.3125 252.984375 218.21875 253.5 C 217.121094 254.019531 216.015625 254.511719 214.894531 254.972656 C 213.777344 255.4375 212.644531 255.875 211.503906 256.28125 C 210.363281 256.691406 209.210938 257.070312 208.050781 257.421875 C 206.894531 257.773438 205.726562 258.097656 204.550781 258.390625 C 203.375 258.6875 202.191406 258.953125 201.003906 259.1875 C 199.8125 259.425781 198.621094 259.632812 197.421875 259.808594 C 196.222656 259.988281 195.019531 260.136719 193.8125 260.253906 C 192.609375 260.375 191.398438 260.460938 190.1875 260.523438 C 188.980469 260.582031 187.765625 260.609375 186.554688 260.609375 C 185.34375 260.609375 184.132812 260.582031 182.921875 260.523438 C 181.710938 260.460938 180.503906 260.375 179.296875 260.253906 C 178.089844 260.136719 176.886719 259.988281 175.6875 259.808594 C 174.492188 259.632812 173.296875 259.425781 172.109375 259.1875 C 170.917969 258.953125 169.738281 258.6875 168.5625 258.390625 C 167.386719 258.097656 166.21875 257.773438 165.058594 257.421875 C 163.898438 257.070312 162.75 256.691406 161.605469 256.28125 C 160.464844 255.875 159.335938 255.4375 158.214844 254.972656 C 157.097656 254.511719 155.988281 254.019531 154.894531 253.5 C 153.796875 252.984375 152.714844 252.4375 151.644531 251.867188 C 150.578125 251.296875 149.523438 250.699219 148.484375 250.074219 C 147.445312 249.453125 146.421875 248.804688 145.414062 248.128906 C 144.40625 247.457031 143.414062 246.757812 142.441406 246.039062 C 141.46875 245.316406 140.511719 244.570312 139.574219 243.800781 C 138.636719 243.03125 137.722656 242.242188 136.824219 241.425781 C 135.925781 240.613281 135.046875 239.777344 134.191406 238.921875 C 133.332031 238.0625 132.496094 237.1875 131.683594 236.289062 C 130.871094 235.390625 130.078125 234.472656 129.308594 233.535156 C 128.539062 232.597656 127.796875 231.644531 127.074219 230.671875 C 126.351562 229.695312 125.652344 228.707031 124.980469 227.699219 C 124.308594 226.691406 123.660156 225.667969 123.035156 224.628906 C 122.414062 223.589844 121.816406 222.535156 121.246094 221.464844 C 120.671875 220.394531 120.128906 219.3125 119.609375 218.21875 C 119.09375 217.121094 118.601562 216.015625 118.136719 214.894531 C 117.671875 213.777344 117.238281 212.644531 116.828125 211.503906 C 116.421875 210.363281 116.039062 209.210938 115.6875 208.050781 C 115.335938 206.894531 115.015625 205.726562 114.71875 204.550781 C 114.425781 203.375 114.160156 202.191406 113.921875 201.003906 C 113.6875 199.8125 113.480469 198.621094 113.300781 197.421875 C 113.125 196.222656 112.976562 195.019531 112.855469 193.8125 C 112.738281 192.609375 112.648438 191.398438 112.589844 190.1875 C 112.53125 188.980469 112.5 187.765625 112.5 186.554688 C 112.5 185.34375 112.53125 184.132812 112.589844 182.921875 C 112.648438 181.710938 112.738281 180.503906 112.855469 179.296875 C 112.976562 178.089844 113.125 176.886719 113.300781 175.6875 C 113.480469 174.492188 113.6875 173.296875 113.921875 172.109375 C 114.160156 170.917969 114.425781 169.738281 114.71875 168.5625 C 115.015625 167.386719 115.335938 166.21875 115.6875 165.058594 C 116.039062 163.898438 116.421875 162.75 116.828125 161.605469 C 117.238281 160.464844 117.671875 159.335938 118.136719 158.214844 C 118.601562 157.097656 119.09375 155.988281 119.609375 154.894531 C 120.128906 153.796875 120.671875 152.714844 121.246094 151.644531 C 121.816406 150.578125 122.414062 149.523438 123.035156 148.484375 C 123.660156 147.445312 124.308594 146.421875 124.980469 145.414062 C 125.652344 144.40625 126.351562 143.414062 127.074219 142.441406 C 127.796875 141.46875 128.539062 140.511719 129.308594 139.574219 C 130.078125 138.636719 130.871094 137.722656 131.683594 136.824219 C 132.496094 135.925781 133.332031 135.046875 134.191406 134.191406 C 135.046875 133.332031 135.925781 132.496094 136.824219 131.683594 C 137.722656 130.871094 138.636719 130.078125 139.574219 129.308594 C 140.511719 128.539062 141.46875 127.796875 142.441406 127.074219 C 143.414062 126.351562 144.40625 125.652344 145.414062 124.980469 C 146.421875 124.308594 147.445312 123.660156 148.484375 123.035156 C 149.523438 122.414062 150.578125 121.816406 151.644531 121.246094 C 152.714844 120.671875 153.796875 120.128906 154.894531 119.609375 C 155.988281 119.09375 157.097656 118.601562 158.214844 118.136719 C 159.335938 117.671875 160.464844 117.238281 161.605469 116.828125 C 162.75 116.421875 163.898438 116.039062 165.058594 115.6875 C 166.21875 115.335938 167.386719 115.015625 168.5625 114.71875 C 169.738281 114.425781 170.917969 114.160156 172.109375 113.921875 C 173.296875 113.6875 174.492188 113.480469 175.6875 113.300781 C 176.886719 113.125 178.089844 112.976562 179.296875 112.855469 C 180.503906 112.738281 181.710938 112.648438 182.921875 112.589844 C 184.132812 112.53125 185.34375 112.5 186.554688 112.5 C 187.765625 112.5 188.980469 112.53125 190.1875 112.589844 C 191.398438 112.648438 192.609375 112.738281 193.8125 112.855469 C 195.019531 112.976562 196.222656 113.125 197.421875 113.300781 C 198.621094 113.480469 199.8125 113.6875 201.003906 113.921875 C 202.191406 114.160156 203.375 114.425781 204.550781 114.71875 C 205.726562 115.015625 206.894531 115.335938 208.050781 115.6875 C 209.210938 116.039062 210.363281 116.421875 211.503906 116.828125 C 212.644531 117.238281 213.777344 117.671875 214.894531 118.136719 C 216.015625 118.601562 217.121094 119.09375 218.21875 119.609375 C 219.3125 120.128906 220.394531 120.671875 221.464844 121.246094 C 222.535156 121.816406 223.589844 122.414062 224.628906 123.035156 C 225.667969 123.660156 226.691406 124.308594 227.699219 124.980469 C 228.707031 125.652344 229.695312 126.351562 230.671875 127.074219 C 231.644531 127.796875 232.597656 128.539062 233.535156 129.308594 C 234.472656 130.078125 235.390625 130.871094 236.289062 131.683594 C 237.1875 132.496094 238.0625 133.332031 238.921875 134.191406 C 239.777344 135.046875 240.613281 135.925781 241.425781 136.824219 C 242.242188 137.722656 243.03125 138.636719 243.800781 139.574219 C 244.570312 140.511719 245.316406 141.46875 246.039062 142.441406 C 246.757812 143.414062 247.457031 144.40625 248.128906 145.414062 C 248.804688 146.421875 249.453125 147.445312 250.074219 148.484375 C 250.699219 149.523438 251.296875 150.578125 251.867188 151.644531 C 252.4375 152.714844 252.984375 153.796875 253.5 154.894531 C 254.019531 155.988281 254.511719 157.097656 254.972656 158.214844 C 255.4375 159.335938 255.875 160.464844 256.28125 161.605469 C 256.691406 162.75 257.070312 163.898438 257.421875 165.058594 C 257.773438 166.21875 258.097656 167.386719 258.390625 168.5625 C 258.6875 169.738281 258.953125 170.917969 259.1875 172.109375 C 259.425781 173.296875 259.632812 174.492188 259.808594 175.6875 C 259.988281 176.886719 260.136719 178.089844 260.253906 179.296875 C 260.375 180.503906 260.460938 181.710938 260.523438 182.921875 C 260.582031 184.132812 260.609375 185.34375 260.609375 186.554688 Z M 260.609375 186.554688 " fill-opacity="1" fill-rule="nonzero"/></g><path fill="#fefefe" d="M 224.957031 233.980469 L 148.191406 233.980469 C 147.527344 233.980469 146.988281 233.441406 146.988281 232.777344 L 146.988281 214.042969 C 146.988281 203.046875 156.585938 194.105469 168.382812 194.105469 L 179.277344 194.105469 C 179.941406 194.105469 180.480469 194.644531 180.480469 195.308594 C 180.480469 195.972656 179.941406 196.511719 179.277344 196.511719 L 168.382812 196.511719 C 157.914062 196.511719 149.394531 204.375 149.394531 214.042969 L 149.394531 231.574219 L 223.753906 231.574219 L 223.753906 214.042969 C 223.753906 204.375 215.234375 196.511719 204.765625 196.511719 L 193.871094 196.511719 C 193.207031 196.511719 192.667969 195.972656 192.667969 195.308594 C 192.667969 194.644531 193.207031 194.105469 193.871094 194.105469 L 204.765625 194.105469 C 216.5625 194.105469 226.164062 203.046875 226.164062 214.042969 L 226.164062 232.777344 C 226.160156 233.441406 225.625 233.980469 224.957031 233.980469 Z M 224.957031 233.980469 " fill-opacity="1" fill-rule="evenodd"/><path fill="#fefefe" d="M 179.277344 196.511719 C 178.613281 196.511719 178.074219 195.972656 178.074219 195.308594 L 178.074219 188.589844 C 178.074219 187.925781 178.613281 187.386719 179.277344 187.386719 C 179.941406 187.386719 180.480469 187.925781 180.480469 188.589844 L 180.480469 195.308594 C 180.480469 195.972656 179.941406 196.511719 179.277344 196.511719 Z M 179.277344 196.511719 " fill-opacity="1" fill-rule="evenodd"/><path fill="#fefefe" d="M 193.871094 196.511719 C 193.207031 196.511719 192.667969 195.972656 192.667969 195.308594 L 192.667969 188.617188 C 192.667969 187.953125 193.207031 187.414062 193.871094 187.414062 C 194.535156 187.414062 195.074219 187.953125 195.074219 188.617188 L 195.074219 195.308594 C 195.074219 195.972656 194.535156 196.511719 193.871094 196.511719 Z M 193.871094 196.511719 " fill-opacity="1" fill-rule="evenodd"/><path fill="#fefefe" d="M 186.605469 191.589844 C 182.03125 191.589844 177.757812 189.8125 174.578125 186.585938 C 171.03125 182.984375 169.152344 177.898438 169.152344 171.875 L 169.152344 167.171875 C 169.152344 166.507812 169.691406 165.96875 170.359375 165.96875 C 171.023438 165.96875 171.5625 166.507812 171.5625 167.171875 L 171.5625 171.875 C 171.5625 183.765625 179.359375 189.183594 186.605469 189.183594 C 190.546875 189.183594 194.210938 187.648438 196.925781 184.859375 C 200.027344 181.679688 201.667969 177.085938 201.667969 171.578125 L 201.667969 167.171875 C 201.667969 166.507812 202.207031 165.96875 202.871094 165.96875 C 203.535156 165.96875 204.074219 166.507812 204.074219 167.171875 L 204.074219 171.578125 C 204.074219 177.726562 202.199219 182.898438 198.652344 186.539062 C 195.476562 189.796875 191.199219 191.589844 186.605469 191.589844 Z M 186.605469 191.589844 " fill-opacity="1" fill-rule="evenodd"/><path fill="#fefefe" d="M 186.574219 205.777344 C 186.203125 205.777344 185.855469 205.605469 185.628906 205.316406 L 178.332031 196.050781 C 177.921875 195.53125 178.011719 194.773438 178.535156 194.363281 C 179.054688 193.949219 179.8125 194.039062 180.222656 194.5625 L 186.574219 202.625 L 192.925781 194.5625 C 193.335938 194.039062 194.09375 193.949219 194.617188 194.363281 C 195.136719 194.773438 195.226562 195.53125 194.816406 196.050781 L 187.519531 205.316406 C 187.292969 205.605469 186.941406 205.777344 186.574219 205.777344 Z M 186.574219 205.777344 " fill-opacity="1" fill-rule="evenodd"/><path fill="#fefefe" d="M 186.574219 233.980469 C 185.910156 233.980469 185.371094 233.441406 185.371094 232.777344 L 185.371094 204.574219 C 185.371094 203.90625 185.910156 203.367188 186.574219 203.367188 C 187.238281 203.367188 187.777344 203.90625 187.777344 204.574219 L 187.777344 232.777344 C 187.777344 233.441406 187.238281 233.980469 186.574219 233.980469 Z M 186.574219 233.980469 " fill-opacity="1" fill-rule="evenodd"/><path fill="#fefefe" d="M 202.871094 168.378906 L 170.359375 168.378906 C 169.691406 168.378906 169.152344 167.839844 169.152344 167.175781 L 169.152344 160.769531 C 169.152344 157.730469 171.628906 155.257812 174.667969 155.257812 L 198.5625 155.257812 C 201.601562 155.257812 204.074219 157.730469 204.074219 160.769531 L 204.074219 167.175781 C 204.074219 167.839844 203.535156 168.378906 202.871094 168.378906 Z M 171.5625 165.96875 L 201.667969 165.96875 L 201.667969 160.769531 C 201.667969 159.058594 200.273438 157.664062 198.5625 157.664062 L 174.667969 157.664062 C 172.953125 157.664062 171.5625 159.058594 171.5625 160.769531 Z M 171.5625 165.96875 " fill-opacity="1" fill-rule="evenodd"/><path fill="#fefefe" d="M 202.871094 161.992188 C 202.4375 161.992188 202.019531 161.757812 201.804688 161.34375 C 201.496094 160.757812 201.722656 160.027344 202.3125 159.722656 L 212.996094 154.144531 L 186.613281 141.703125 L 160.238281 154.140625 L 170.914062 159.703125 C 171.503906 160.007812 171.734375 160.734375 171.425781 161.324219 C 171.117188 161.914062 170.390625 162.144531 169.800781 161.835938 L 156.972656 155.15625 C 156.566406 154.945312 156.316406 154.523438 156.324219 154.066406 C 156.335938 153.609375 156.601562 153.195312 157.015625 153 L 186.101562 139.28125 C 186.425781 139.128906 186.804688 139.128906 187.128906 139.28125 L 216.214844 153 C 216.628906 153.195312 216.894531 153.605469 216.902344 154.0625 C 216.914062 154.519531 216.664062 154.945312 216.257812 155.15625 L 203.429688 161.855469 C 203.25 161.949219 203.058594 161.992188 202.871094 161.992188 Z M 202.871094 161.992188 " fill-opacity="1" fill-rule="evenodd"/><path fill="#fefefe" d="M 215.699219 166.539062 C 215.035156 166.539062 214.496094 166 214.496094 165.335938 L 214.496094 154.089844 C 214.496094 153.425781 215.035156 152.886719 215.699219 152.886719 C 216.367188 152.886719 216.902344 153.425781 216.902344 154.089844 L 216.902344 165.335938 C 216.902344 166 216.367188 166.539062 215.699219 166.539062 Z M 215.699219 166.539062 " fill-opacity="1" fill-rule="evenodd"/><g clip-path="url(#eae74216a5)"><path fill="#000000" d="M 187.5 262.5 C 146.066406 262.5 112.5 228.703125 112.5 187.5 C 112.5 146.296875 146.066406 112.5 187.5 112.5 C 228.933594 112.5 262.5 146.066406 262.5 187.5 C 262.5 228.933594 228.703125 262.5 187.5 262.5 Z M 187.5 117.128906 C 148.609375 117.128906 117.128906 148.609375 117.128906 187.5 C 117.128906 226.390625 148.609375 257.871094 187.5 257.871094 C 226.390625 257.871094 257.871094 226.390625 257.871094 187.5 C 257.871094 148.609375 226.15625 117.128906 187.5 117.128906 Z M 187.5 117.128906 " fill-opacity="1" fill-rule="nonzero"/></g></svg>