<svg xmlns="http://www.w3.org/2000/svg" xmlns:xlink="http://www.w3.org/1999/xlink" width="500" zoomAndPan="magnify" viewBox="0 0 375 374.999991" height="500" preserveAspectRatio="xMidYMid meet" version="1.0"><defs><clipPath id="413169c65e"><path d="M 112.5 112.5 L 262.5 112.5 L 262.5 262.5 L 112.5 262.5 Z M 112.5 112.5 " clip-rule="nonzero"/></clipPath><clipPath id="00d9072dd8"><path d="M 112.5 112.5 L 262.5 112.5 L 262.5 262.5 L 112.5 262.5 Z M 112.5 112.5 " clip-rule="nonzero"/></clipPath></defs><g clip-path="url(#413169c65e)"><path fill="#40dfaf" d="M 196.332031 262.5 L 178.667969 262.5 C 177.789062 262.5 177.085938 261.886719 176.910156 261.09375 L 173.746094 246.683594 C 167.246094 245.1875 161.007812 242.640625 155.292969 239.039062 L 142.902344 247.035156 C 142.203125 247.472656 141.324219 247.386719 140.707031 246.769531 L 128.230469 234.203125 C 127.613281 233.675781 127.527344 232.710938 127.964844 232.007812 L 135.875 219.617188 C 132.359375 213.90625 129.722656 207.753906 128.230469 201.164062 L 113.90625 198.089844 C 113.027344 197.914062 112.5 197.121094 112.5 196.332031 L 112.5 178.667969 C 112.5 177.789062 113.027344 177.085938 113.90625 176.910156 L 128.230469 173.746094 C 129.722656 167.246094 132.359375 161.007812 135.875 155.292969 L 127.964844 142.902344 C 127.527344 142.203125 127.613281 141.324219 128.230469 140.707031 L 140.707031 128.230469 C 141.324219 127.613281 142.203125 127.527344 142.902344 127.964844 L 155.292969 135.875 C 161.007812 132.359375 167.246094 129.722656 173.746094 128.230469 L 176.910156 113.90625 C 177.085938 113.113281 177.789062 112.5 178.667969 112.5 L 196.332031 112.5 C 197.210938 112.5 197.914062 113.113281 198.089844 113.90625 L 201.164062 128.230469 C 207.753906 129.8125 213.992188 132.359375 219.707031 135.960938 L 232.097656 127.964844 C 232.796875 127.527344 233.675781 127.613281 234.292969 128.230469 L 246.769531 140.707031 C 247.386719 141.324219 247.472656 142.203125 247.035156 142.902344 L 239.039062 155.292969 C 242.640625 161.007812 245.1875 167.246094 246.769531 173.746094 L 261.09375 176.910156 C 261.886719 177.085938 262.5 177.789062 262.5 178.667969 L 262.5 196.332031 C 262.5 197.210938 261.886719 197.914062 261.09375 198.089844 L 246.769531 201.253906 C 245.1875 207.753906 242.640625 213.992188 239.039062 219.707031 L 247.035156 232.097656 C 247.472656 232.796875 247.386719 233.675781 246.769531 234.292969 L 234.292969 246.769531 C 233.675781 247.386719 232.796875 247.472656 232.097656 247.035156 L 219.707031 239.125 C 213.992188 242.640625 207.753906 245.277344 201.164062 246.769531 L 198.089844 261.09375 C 197.914062 261.886719 197.121094 262.5 196.332031 262.5 Z M 187.457031 230.425781 C 163.816406 230.425781 144.574219 211.183594 144.574219 187.457031 C 144.574219 163.816406 163.816406 144.574219 187.457031 144.574219 C 211.183594 144.574219 230.425781 163.816406 230.425781 187.457031 C 230.425781 211.183594 211.183594 230.425781 187.457031 230.425781 Z M 187.457031 230.425781 " fill-opacity="1" fill-rule="evenodd"/></g><path fill="#40dfaf" d="M 162.851562 187.457031 L 172.253906 196.859375 C 174.449219 199.054688 172.867188 202.832031 169.707031 202.832031 C 168.828125 202.832031 167.949219 202.480469 167.246094 201.78125 L 155.46875 190.003906 C 154.0625 188.597656 154.0625 186.402344 155.46875 184.996094 L 167.246094 173.132812 C 168.125 172.253906 169.355469 171.902344 170.585938 172.253906 C 173.21875 172.957031 174.1875 176.121094 172.253906 178.140625 Z M 212.0625 187.457031 L 202.746094 178.140625 C 201.867188 177.261719 201.429688 176.03125 201.78125 174.800781 C 202.480469 172.253906 205.734375 171.199219 207.667969 173.132812 L 219.53125 184.996094 C 220.9375 186.402344 220.9375 188.597656 219.53125 190.003906 L 207.667969 201.78125 C 207.050781 202.480469 206.171875 202.832031 205.207031 202.832031 C 202.132812 202.832031 200.550781 199.054688 202.746094 196.859375 Z M 212.0625 187.457031 " fill-opacity="1" fill-rule="evenodd"/><path fill="#40dfaf" d="M 179.546875 204.679688 C 176.910156 204.679688 175.152344 201.78125 176.472656 199.40625 L 192.289062 171.992188 C 192.992188 170.9375 194.046875 170.234375 195.363281 170.234375 C 198 170.320312 199.847656 173.132812 198.441406 175.503906 L 182.621094 202.921875 C 182.007812 203.976562 180.777344 204.679688 179.546875 204.679688 Z M 179.546875 204.679688 " fill-opacity="1" fill-rule="evenodd"/><g clip-path="url(#00d9072dd8)"><path fill="#000000" d="M 196.332031 262.5 L 178.667969 262.5 C 177.789062 262.5 177.085938 261.886719 176.910156 261.09375 L 173.746094 246.683594 C 167.246094 245.1875 161.007812 242.640625 155.292969 239.039062 L 142.902344 247.035156 C 142.203125 247.472656 141.324219 247.386719 140.707031 246.769531 L 128.230469 234.203125 C 127.613281 233.675781 127.527344 232.710938 127.964844 232.007812 L 135.875 219.617188 C 132.359375 213.90625 129.722656 207.753906 128.230469 201.164062 L 113.90625 198.089844 C 113.027344 197.914062 112.5 197.121094 112.5 196.332031 L 112.5 178.667969 C 112.5 177.789062 113.027344 177.085938 113.90625 176.910156 L 128.230469 173.746094 C 129.722656 167.246094 132.359375 161.007812 135.875 155.292969 L 127.964844 142.902344 C 127.527344 142.203125 127.613281 141.324219 128.230469 140.707031 L 140.707031 128.230469 C 141.324219 127.613281 142.203125 127.527344 142.902344 127.964844 L 155.292969 135.875 C 161.007812 132.359375 167.246094 129.722656 173.746094 128.230469 L 176.910156 113.90625 C 177.085938 113.113281 177.789062 112.5 178.667969 112.5 L 196.332031 112.5 C 197.210938 112.5 197.914062 113.113281 198.089844 113.90625 L 201.164062 128.230469 C 207.753906 129.8125 213.992188 132.359375 219.707031 135.960938 L 232.097656 127.964844 C 232.796875 127.527344 233.675781 127.613281 234.292969 128.230469 L 246.769531 140.707031 C 247.386719 141.324219 247.472656 142.203125 247.035156 142.902344 L 239.039062 155.292969 C 242.640625 161.007812 245.1875 167.246094 246.769531 173.746094 L 261.09375 176.910156 C 261.886719 177.085938 262.5 177.789062 262.5 178.667969 L 262.5 196.332031 C 262.5 197.210938 261.886719 197.914062 261.09375 198.089844 L 246.769531 201.253906 C 245.1875 207.753906 242.640625 213.992188 239.039062 219.707031 L 247.035156 232.097656 C 247.472656 232.796875 247.386719 233.675781 246.769531 234.292969 L 234.292969 246.769531 C 233.675781 247.386719 232.796875 247.472656 232.097656 247.035156 L 219.707031 239.125 C 213.992188 242.640625 207.753906 245.277344 201.164062 246.769531 L 198.089844 261.09375 C 197.914062 261.886719 197.121094 262.5 196.332031 262.5 Z M 180.074219 258.984375 L 194.925781 258.984375 L 198 244.835938 C 198.175781 244.222656 198.703125 243.695312 199.320312 243.519531 C 206.261719 242.113281 212.761719 239.390625 218.738281 235.523438 C 219.265625 235.082031 220.058594 235.082031 220.585938 235.523438 L 232.796875 243.253906 L 243.253906 232.710938 L 235.523438 220.585938 C 235.082031 220.058594 235.082031 219.265625 235.523438 218.738281 C 239.390625 212.761719 242.113281 206.261719 243.519531 199.320312 C 243.695312 198.703125 244.222656 198.175781 244.835938 198 L 258.984375 194.925781 L 258.984375 180.074219 L 244.835938 177 C 244.222656 176.824219 243.695312 176.296875 243.519531 175.59375 C 242.113281 168.738281 239.390625 162.148438 235.523438 156.261719 C 235.082031 155.644531 235.082031 154.941406 235.523438 154.328125 L 243.253906 142.203125 L 232.710938 131.65625 L 220.585938 139.476562 C 220.058594 139.828125 219.265625 139.828125 218.738281 139.476562 C 212.761719 135.609375 206.261719 132.886719 199.320312 131.394531 C 198.703125 131.304688 198.175781 130.777344 198 130.074219 L 194.925781 116.015625 L 180.074219 116.015625 L 177 130.074219 C 176.824219 130.777344 176.296875 131.304688 175.59375 131.480469 C 168.738281 132.886719 162.148438 135.609375 156.261719 139.476562 C 155.644531 139.828125 154.941406 139.828125 154.328125 139.476562 L 142.203125 131.65625 L 131.65625 142.203125 L 139.476562 154.328125 C 139.828125 154.941406 139.828125 155.734375 139.476562 156.261719 C 135.609375 162.238281 132.886719 168.738281 131.394531 175.59375 C 131.304688 176.296875 130.777344 176.824219 130.074219 177 L 116.015625 180.074219 L 116.015625 194.925781 L 130.074219 198 C 130.777344 198.175781 131.304688 198.703125 131.394531 199.320312 C 132.886719 206.261719 135.609375 212.761719 139.476562 218.738281 C 139.828125 219.265625 139.828125 220.058594 139.476562 220.585938 L 131.65625 232.796875 L 142.203125 243.253906 L 154.328125 235.523438 C 154.941406 235.082031 155.644531 235.171875 156.261719 235.523438 C 162.148438 239.390625 168.738281 242.113281 175.59375 243.519531 C 176.296875 243.695312 176.824219 244.222656 177 244.925781 Z M 175.242188 129.722656 Z M 175.242188 129.722656 " fill-opacity="1" fill-rule="evenodd"/></g><path fill="#000000" d="M 187.457031 230.425781 C 163.816406 230.425781 144.574219 211.183594 144.574219 187.457031 C 144.574219 163.816406 163.816406 144.574219 187.457031 144.574219 C 211.183594 144.574219 230.425781 163.816406 230.425781 187.457031 C 230.425781 211.183594 211.183594 230.425781 187.457031 230.425781 Z M 187.457031 148.089844 C 165.75 148.089844 148.089844 165.75 148.089844 187.457031 C 148.089844 209.25 165.75 226.910156 187.457031 226.910156 C 209.25 226.910156 226.910156 209.25 226.910156 187.457031 C 226.910156 165.75 209.25 148.089844 187.457031 148.089844 Z M 187.457031 148.089844 " fill-opacity="1" fill-rule="evenodd"/><path fill="#000000" d="M 169.707031 201.078125 C 169.265625 201.078125 168.828125 200.902344 168.476562 200.550781 L 156.699219 188.6875 C 155.996094 188.070312 155.996094 186.929688 156.699219 186.226562 L 168.476562 174.449219 C 170.144531 172.78125 172.605469 175.242188 171.023438 176.910156 L 160.390625 187.457031 L 171.023438 198.089844 C 172.078125 199.144531 171.289062 201.078125 169.707031 201.078125 Z M 169.707031 201.078125 " fill-opacity="1" fill-rule="evenodd"/><path fill="#000000" d="M 205.207031 201.078125 C 203.625 201.078125 202.832031 199.144531 203.976562 198.089844 L 214.519531 187.457031 L 203.976562 176.910156 C 202.308594 175.242188 204.765625 172.78125 206.4375 174.449219 L 218.300781 186.226562 C 219.003906 186.929688 219.003906 188.070312 218.300781 188.6875 L 206.4375 200.550781 C 206.085938 200.902344 205.644531 201.078125 205.207031 201.078125 Z M 205.207031 201.078125 " fill-opacity="1" fill-rule="evenodd"/><path fill="#000000" d="M 179.546875 202.921875 C 178.230469 202.921875 177.351562 201.429688 178.054688 200.285156 L 193.871094 172.957031 C 195.011719 170.9375 198.089844 172.691406 196.945312 174.714844 L 181.128906 202.042969 C 180.777344 202.65625 180.164062 202.921875 179.546875 202.921875 Z M 179.546875 202.921875 " fill-opacity="1" fill-rule="evenodd"/></svg>